<svg width="30" height="30" viewBox="0 0 30 30" fill="none" xmlns="http://www.w3.org/2000/svg">
<path d="M15 3.75C11.9019 3.75 9.375 6.27685 9.375 9.375C9.375 12.4731 11.9019 15 15 15C18.0981 15 20.625 12.4731 20.625 9.375C20.625 6.27685 18.0981 3.75 15 3.75ZM15 15C9.83643 15 5.625 19.2114 5.625 24.375H7.5C7.5 20.2222 10.8472 16.875 15 16.875C19.1528 16.875 22.5 20.2222 22.5 24.375H24.375C24.375 19.2114 20.1636 15 15 15ZM15 5.625C17.0801 5.625 18.75 7.29492 18.75 9.375C18.75 11.4551 17.0801 13.125 15 13.125C12.9199 13.125 11.25 11.4551 11.25 9.375C11.25 7.29492 12.9199 5.625 15 5.625Z" fill="black"/>
</svg>
